<svg width="200" height="200" viewBox="0 0 200 200" fill="none" xmlns="http://www.w3.org/2000/svg">
<circle cx="100" cy="100" r="100" fill="#002139"/>
<path d="M100.973 79.0499C100.973 79.0499 117.034 95.6704 112.35 123.22C128.41 116.617 134.656 105.688 136.441 94.7597C136.441 94.7597 141.794 74.0409 150.271 65.3892C133.541 68.1213 131.98 61.5186 100.973 79.0499Z" fill="#08B1AB"/>
<path d="M104.319 129.598C104.765 127.549 111.011 105.92 98.7427 88.3884C78.2205 65.1652 47.2142 61.75 47.2142 61.75C53.237 73.5893 53.4601 84.7455 59.929 107.513C67.9594 130.964 97.4043 132.558 99.6349 132.786C101.643 135.973 106.104 140.299 116.588 142.576L117.703 136.884C108.558 135.062 105.435 131.42 104.319 129.598ZM75.3207 100.455C72.8669 92.4866 66.398 79.2813 58.3676 72.4509C58.3676 72.4509 81.5665 78.8259 95.1736 123.223C82.6819 119.125 77.1052 106.375 75.3207 100.455Z" fill="#08B1AB"/>
<path d="M50.5602 54.9197C37.6223 61.2947 32.2687 76.5491 32.2687 100C32.2687 122.996 37.3992 138.478 50.5602 145.08L48.9987 150.772C28.9227 143.714 20 127.777 20 100C20 71.9955 29.1457 56.058 48.9987 49L50.5602 54.9197Z" fill="white"/>
<path d="M146.925 49.2276C167.001 56.2856 175.924 72.2231 175.924 100.228C175.924 128.004 166.778 143.942 146.925 151L145.364 145.308C158.302 138.705 163.655 123.223 163.655 100.228C163.655 76.7766 158.525 61.5222 145.364 55.1472L146.925 49.2276Z" fill="white"/>
</svg>
